<?xml version="1.0" encoding="utf-8"?>
<!-- Generator: Adobe Illustrator 26.1.0, SVG Export Plug-In . SVG Version: 6.00 Build 0)  -->
<svg version="1.1" id="Layer_1" xmlns="http://www.w3.org/2000/svg" xmlns:xlink="http://www.w3.org/1999/xlink" x="0px" y="0px"
	 viewBox="0 0 370 770" style="enable-background:new 0 0 750 823.2;" xml:space="preserve">
<style type="text/css">
	.st0{fill:none;stroke:#CCCCDC;}
	.st1{fill:#1857B8;}
	.st2{fill:#FA6400;stroke:#CCCCDC;}
	.st3{fill:#5694F2;stroke:#CCCCDC;}
	.st4{fill:#E0B400;stroke:#CCCCDC;}
	.st5{fill:#77BE69;stroke:#CCCCDC;}
	.st6{fill:none;stroke:#CCCCDC;stroke-width:2;}
	.st7{fill:#CCCCDC;}
</style>
<g id="rocket_group">
	<polygon id="outline" class="st0" points="48.2,0.6 49.7,2.4 51,7.3 54.5,22.7 59.3,49.5 62.9,78.7 65.4,100.3 66.5,118.8 
		66.8,721 88.1,735 88.1,750 66.9,753 66.7,758.3 29.1,758.3 29.1,753 7.9,749.8 7.9,735.1 29.7,720.5 29.4,117.9 30.2,103.3 
		32,84.8 34.2,66.6 36.8,46.9 39,33.3 41.9,17.6 44.2,7.6 46.4,1.6 	"/>
	<rect id="oxidizer_outline" x="29.6" y="395.3" class="st0" width="37.1" height="142.9"/>
	<rect id="oxidizer_liquid" x="29.6" y="395.2" class="st1" width="37.1" height="142.9"/>
	<rect id="fuel" x="29.1" y="567" class="st2" width="37.6" height="185.9"/>
	<rect id="computer" x="29.6" y="302.6" class="st3" width="37" height="60.4"/>
	<rect id="payload" x="29.6" y="252.5" class="st4" width="37" height="50.1"/>
	<rect id="parachute" x="29.4" y="121.8" class="st5" width="37.1" height="106.9"/>
</g>
<g id="_433_signal">
	<path id="_1" class="st6" d="M81.5,235.8c3.9,3.9,3.9,10.2,0,14.1"/>
	<path id="_2" class="st6" d="M88.3,229c7.8,7.8,7.8,20.5,0,28.3"/>
	<path id="_3" class="st6" d="M95.3,222c11.7,11.7,11.7,30.7,0,42.4"/>
	<path id="_4" class="st6" d="M102.4,214.9c15.6,15.6,15.6,40.9,0,56.6c0,0,0,0,0,0"/>
	<path id="_5" class="st6" d="M109.6,207.7c19.5,19.5,19.5,51.2,0,70.7"/>
</g>
<path id="valve1" class="st6" d="M177.1,524.9v28.5l56.9-28.5v28.5L177.1,524.9z"/>
<path id="valve2" class="st6" d="M177.1,571.4v28.5l56.9-28.5v28.5L177.1,571.4z"/>
<g id="oxidizer_tank">
	<path class="st7" d="M363.4,627.2c0-9.4-7-17.3-15.7-17.6c-5.3-0.2-10.5-0.2-15.8,0c-8.8,0.3-15.9,8.2-15.9,17.5
		c0,41.6,0,83.2,0,124.9c0,5.1,1,6.3,5.7,6.4c12,0.1,24,0.1,35.9,0c4.7,0,5.8-1.3,5.8-6.2c0-21,0-41.9,0-62.9
		C363.4,668.5,363.4,647.9,363.4,627.2z"/>
	<rect x="333.3" y="606.3" class="st7" width="13.6" height="4.3"/>
	<rect x="335.7" y="602.7" class="st7" width="8.8" height="3.7"/>
</g>
<g id="hatch">
	<rect x="68.5" y="538.1" class="st7" width="13.1" height="2"/>
	<rect x="67.7" y="527" class="st7" width="2" height="24.2"/>
	
		<rect x="63.1" y="525.6" transform="matrix(0.7071 -0.7071 0.7071 0.7071 -348.4782 211.8327)" class="st7" width="36.8" height="2"/>
	
		<rect x="80.5" y="533.3" transform="matrix(0.7071 -0.7071 0.7071 0.7071 -366.215 219.1807)" class="st7" width="2" height="36.8"/>
	<path class="st7" d="M89.3,548c-4.9,0-8.9-4-8.9-8.9c0-4.9,4-8.9,8.9-8.9c4.9,0,8.9,4,8.9,8.9S94.3,548,89.3,548
		C89.4,548,89.4,548,89.3,548z M89.3,532.2c-3.8,0-6.9,3.1-6.9,6.9c0,3.8,3.1,6.9,6.9,6.9c3.8,0,6.9-3.1,6.9-6.9c0,0,0,0,0,0
		C96.2,535.3,93.2,532.2,89.3,532.2z"/>
</g>
<line class="st6" x1="340.1" y1="604.7" x2="340.1" y2="538.2"/>
<line class="st6" x1="340.8" y1="539.1" x2="234" y2="539.1"/>
<line class="st6" x1="340.8" y1="585.7" x2="234" y2="585.7"/>
<line class="st6" x1="177.1" y1="539.1" x2="97.2" y2="539.1"/>
<circle class="st7" cx="340.1" cy="539.1" r="4"/>
<circle class="st7" cx="340.1" cy="585.7" r="4"/>
</svg>
