<svg xmlns="http://www.w3.org/2000/svg" viewBox="0 0 292.84 758.84">
    <defs>
        <style>
            .cls-1{fill:#ccccdc;}.cls-2,.cls-8{fill:none;}.cls-2,.cls-4,.cls-5,.cls-6,.cls-7,.cls-8{stroke:#ccccdc;}.cls-3{fill:#1857b8;}.cls-4{fill:#fa6400;}.cls-5{fill:#5694f2;}.cls-6{fill:#e0b400;}.cls-7{fill:#77be69;}.cls-8{stroke-width:2px;}</style>
    </defs>
    <g id="Layer_2" data-name="Layer 2">
        <g id="Layer_1-2" data-name="Layer 1">
            <g id="hatch">
                <rect class="cls-1" x="192.09" y="528.94" width="9.25" height="1.42" />
                <rect class="cls-1" x="200.49" y="521.08" width="1.41" height="17.14" />
                <polygon class="cls-1"
                    points="201.84 529.81 183.47 548.24 182.47 547.24 200.84 528.81 201.84 529.81" />
                <polygon class="cls-1"
                    points="201.83 529.47 200.83 530.47 182.46 512.04 183.46 511.04 201.83 529.47" />
                <path class="cls-1"
                    d="M186.65,523.35a6.3,6.3,0,1,1-6.28,6.3,6.31,6.31,0,0,1,6.28-6.3Zm0,11.18a4.89,4.89,0,1,0-4.87-4.88h0A4.84,4.84,0,0,0,186.65,534.53Z" />
            </g>
            <g id="rocket_group" data-name="rocket group">
                <polygon id="outline" class="cls-2"
                    points="221 0.64 222.5 2.44 223.8 7.34 227.3 22.74 232.1 49.54 235.7 78.74 238.2 100.34 239.3 118.84 239.6 721.04 260.9 735.04 260.9 750.04 239.7 753.04 239.5 758.34 201.9 758.34 201.9 753.04 180.7 749.84 180.7 735.14 202.5 720.54 202.2 117.94 203 103.34 204.8 84.84 207 66.64 209.6 46.94 211.8 33.34 214.7 17.64 217 7.64 219.2 1.64 221 0.64" />
                <rect id="oxidizer_outline" data-name="oxidizer outline" class="cls-2" x="202.4"
                    y="395.34" width="37.1" height="142.9" />
                <rect id="oxidizer_liquid" data-name="oxidizer liquid" class="cls-3" x="202.4"
                    y="395.24" width="37.1" height="142.9" />
                <rect id="engine" class="cls-4" x="201.9" y="567.04" width="37.6" height="185.9" />
                <rect id="avionics" class="cls-5" x="202.4" y="302.64" width="37" height="60.4" />
                <rect id="payload" class="cls-6" x="202.4" y="252.54" width="37" height="50.1" />
                <rect id="recovery" class="cls-7" x="202.2" y="121.84" width="37.1" height="106.9" />
            </g>
            <g id="_433_signal" data-name=" 433 signal">
                <path id="_1" data-name=" 1" class="cls-8" d="M249.11,232.14a10,10,0,0,1,0,14.1" />
                <path id="_2" data-name=" 2" class="cls-8" d="M255.91,225.34a20,20,0,0,1,0,28.3" />
                <path id="_3" data-name=" 3" class="cls-8" d="M262.91,218.34a30,30,0,0,1,0,42.4" />
                <path id="_4" data-name=" 4" class="cls-8"
                    d="M270,211.24a40.08,40.08,0,0,1,0,56.6h0" />
                <path id="_5" data-name=" 5" class="cls-8" d="M277.21,204a50,50,0,0,1,0,70.7" />
            </g>
            <path id="valve1" class="cls-8" d="M83.56,515v27.59L135.66,515v27.59Z" />
            <path id="valve2" class="cls-8" d="M119.33,605.08H99.89l19.44,36.72H99.89Z" />
            <g id="oxidizer_tank" data-name="oxidizer tank">
                <path class="cls-1"
                    d="M47.4,643.76c0-7.8-7-14.35-15.7-14.6-5.3-.16-10.5-.16-15.8,0C7.1,629.41,0,636,0,643.68V747.27c0,4.23,1,5.23,5.7,5.31,12,.08,24,.08,35.9,0,4.7,0,5.8-1.08,5.8-5.14V643.76Z" />
                <rect class="cls-1" x="17.3" y="626.42" width="13.6" height="3.57" />
                <rect class="cls-1" x="19.7" y="623.44" width="8.8" height="3.07" />
            </g>
        </g>
    </g>
</svg>