<svg id="simba" xmlns="http://www.w3.org/2000/svg" viewBox="0 0 140 770">
    <defs>
        <style>
            .cls-1{fill:var(--text-color);}
            .cls-2,.cls-8{fill:none;}
            .cls-2,.cls-4,.cls-5,.cls-6,.cls-7,.cls-8{stroke:var(--text-color);}
            .cls-3{fill:none;}
            .cls-4,.cls-5,.cls-6,.cls-7{fill:var(--text-color);}
            .cls-8{stroke-width:2px;}
            #oxidizer_liquid { transition: height 1s ease, y 1s ease; }
            #pressurizer_txt {fill: var(--snd-bg-color); font-size: 1.4rem;}
            #oxidizer_txt {fill: var(--snd-bg-color); font-size: 1.4rem;}
        </style>
    </defs>
    <g id="SVG" data-name="svg">
        <g id="rocket_group" data-name="rocket group" transform="translate(160 0)">
            <path id="outline" class="cls-2"
                d="M38,761.76c-3.6,0-7.19-.08-10.79,0-1.94.07-2.82-.54-3-2.57-.61-5.42-2.07-10.75-1.77-16.27.09-1.6-.82-2-2.11-2.33-5.7-1.28-11.37-2.68-17.08-3.86-2-.42-2.69-1.42-2.67-3.38q.1-9.55,0-19.1a3.17,3.17,0,0,1,2.56-3.58c5.36-1.66,10.62-3.66,16-5.23,2.52-.73,3.35-1.84,3.34-4.52-.1-34.91-.06-69.81-.06-104.72q0-213,0-426.07c0-7-.56-14.07,0-21.1q1-12.74,2.15-25.46c.63-7.52,1.24-15,1.91-22.56s1.42-14.88,2.11-22.32c.66-7,1.25-14,1.93-21,.6-6.1,1.29-12.19,1.9-18.29,1.08-10.78,2.43-21.54,3.92-32.28.21-1.48.32-3,.58-4.44C37,1.88,37,.56,38,.5S39,1.79,39.15,2.61c.41,2.66.71,5.33,1,8,1,7.71,2,15.42,2.87,23.14C44,42.15,44.75,50.56,45.6,59c.69,6.91,1.43,13.82,2.1,20.73.54,5.66,1,11.32,1.49,17,.68,7.66,1.4,15.33,2.08,23,.51,5.81,1,11.62,1.45,17.43.64,8.5,1.31,17,1.28,25.53-.7,179.25-.14,358.5-.31,537.75,0,4.57-.49,3.74,3.81,5.21,5.17,1.77,10.35,3.51,15.56,5.15,1.67.53,2.47,1.38,2.46,3.19q-.09,9.89,0,19.78c0,1.83-.76,2.63-2.54,3-5.56,1.19-11.08,2.61-16.65,3.76-2,.41-2.79,1.16-2.68,3.26.28,5.5-1.25,10.83-1.87,16.25-.17,1.44-1.06,1.79-2.35,1.78C45.6,761.73,41.78,761.76,38,761.76Z" />
            <path id="avionics" class="cls-5"
                d="M24.47,324.18c0,18,0,35.95,0,53.93,0,2.18.69,2.83,2.83,2.8q10.89-.17,21.79,0c2,0,2.54-.72,2.54-2.64q-.06-54,0-108.09c0-2-.66-2.58-2.6-2.56-7.19.09-14.38,0-21.57,0-2.94,0-3,0-3,3Z" />
            <path id="engine" class="cls-4"
                d="M24.47,680.29c0,20.69,0,41.38,0,62.07,0,2.51.69,3.26,2.83,3.22q10.89-.18,21.79,0c2,0,2.54-.83,2.54-3q-.08-62.2,0-124.4c0-2.29-.66-3-2.6-2.95-7.19.1-14.38,0-21.57,0-2.94,0-3,0-3,3.49Z" />
            <path id="recovery" class="cls-7"
                d="M24.47,217.28c0,4.33,0,8.67,0,13,0,1.59.47,2.31,2.17,2.3,7.62-.06,15.25-.05,22.88,0,1.57,0,2.08-.65,2.07-2.16q-.06-13.12,0-26.25c0-1.71-.7-2.19-2.28-2.18q-11.34.07-22.66,0c-1.68,0-2.22.66-2.19,2.27C24.51,208.6,24.47,212.94,24.47,217.28Z" />
            <path id="tank_oxidizer" class="cls-2"
                d="M24.49,497.67q0,47.55,0,95.11c0,3.85.69,5,2.83,4.94,7.26-.19,14.53-.17,21.8,0,2,0,2.53-1.27,2.53-4.65q-.06-95.31,0-190.63c0-3.51-.66-4.56-2.59-4.52-7.19.16-14.39.06-21.58.07-2.94,0-3,0-3,5.35Z" />
            <rect id="oxidizer_liquid" data-name="oxidizer liquid" class="cls-3" x="25"
                y="398" width="26.5" height="200" rx="4" transform="rotate(180, 38.25, 498)"/>
            <path id="payload" class="cls-6"
                d="M24.47,250.09c0,4.34,0,8.68,0,13,0,1.59.47,2.31,2.17,2.3q11.43-.07,22.88,0c1.57,0,2.08-.66,2.07-2.17q-.06-13.13,0-26.25c0-1.7-.7-2.18-2.28-2.17q-11.34.08-22.66,0c-1.68,0-2.22.66-2.19,2.27C24.51,241.41,24.47,245.75,24.47,250.09Z" />
        </g>
        <g id="tanking_group">
            <!-- Testing texts -->
            <text id="valve_feed_oxidizer_txt" x="92" y="500" text-anchor="middle"
                dominant-baseline="middle"
                style="font-size: 1.4rem; fill: var(--text-color);">
                OPEN
            </text>

            <text id="valve_vent_oxidizer_txt" x="120" y="625" text-anchor="middle"
                dominant-baseline="middle"
                style="font-size: 1.4rem; fill: var(--text-color);">
                OPEN
            </text>

            <g id="oxidizer">
                <g id="decoupler_oxidizer">
                    <rect class="cls-1" x="170.24" y="528.94" width="9.25" height="1.42" />
                    <rect class="cls-1" x="178.64" y="521.08" width="1.41" height="17.14" />
                    <polygon class="cls-1"
                        points="179.99 529.81 161.62 548.24 160.62 547.24 178.99 528.81 179.99 529.81" />
                    <polygon class="cls-1"
                        points="179.98 529.47 178.98 530.47 160.61 512.04 161.61 511.04 179.98 529.47" />
                    <path class="cls-1"
                        d="M164.8,523.35a6.3,6.3,0,1,1-6.28,6.32v0A6.31,6.31,0,0,1,164.8,523.35Zm0,11.18a4.89,4.89,0,1,0-4.87-4.91v0h0a4.84,4.84,0,0,0,4.8,4.88Z" />
                </g>
                <path id="valve_feed_oxidizer" class="cls-8"
                    d="M67.23,515.07v27.59l52.1-27.59v27.59Z" />
                <path id="valve_vent_oxidizer" class="cls-8"
                    d="M103,605.15H83.56L103,641.87H83.56Z" transform="translate(-20 0)" />
                <g id="oxidizer_tank" data-name="oxidizer tank" transform="translate(-20 0)">
                    <path class="cls-1"
                        d="M47.4,643.83c0-7.8-7-14.35-15.7-14.6-5.3-.16-10.5-.16-15.8,0C7.1,629.48,0,636.07,0,643.75V747.34c0,4.23,1,5.23,5.7,5.31,12,.08,24,.08,35.9,0,4.7,0,5.8-1.08,5.8-5.14Z" />
                    <rect class="cls-1" x="17.3" y="626.49" width="13.6" height="3.57" />
                    <rect class="cls-1" x="19.7" y="623.51" width="8.8" height="3.07" />
                    <text id="pressurizer_txt" x="25" y="655" writing-mode="tb">
                        Oxidizer
                    </text>
                </g>
            </g>
            <!-- 
            <g id="pressurizer">
                <g id="decoupler_pressurizer" transform="translate(0 -110)">
                    <rect class="cls-1" x="170.24" y="528.94" width="9.25" height="1.42" />
                    <rect class="cls-1" x="178.64" y="521.08" width="1.41" height="17.14" />
                    <polygon class="cls-1"
                        points="179.99 529.81 161.62 548.24 160.62 547.24 178.99 528.81 179.99 529.81" />
                    <polygon class="cls-1"
                        points="179.98 529.47 178.98 530.47 160.61 512.04 161.61 511.04 179.98 529.47" />
                    <path class="cls-1"
            d="M164.8,523.35a6.3,6.3,0,1,1-6.28,6.32v0A6.31,6.31,0,0,1,164.8,523.35Zm0,11.18a4.89,4.89,0,1,0-4.87-4.91v0h0a4.84,4.84,0,0,0,4.8,4.88Z"
                    />
                </g>
                <path id="valve_feed_pressurizer" class="cls-8"
                    d="M67.23,515.07v27.59l52.1-27.59v27.59Z" transform="translate(0 -110)"/>
                <path id="valve_vent_pressurizer" class="cls-8" transform="translate(-130 0)"
                    d="M103,605.15H83.56L103,641.87H83.56Z"/>
                <g id="pressurizer_tank" data-name="oxidizer tank" transform="translate(-130 0)">
                    <path class="cls-1"
            d="M47.4,643.83c0-7.8-7-14.35-15.7-14.6-5.3-.16-10.5-.16-15.8,0C7.1,629.48,0,636.07,0,643.75V747.34c0,4.23,1,5.23,5.7,5.31,12,.08,24,.08,35.9,0,4.7,0,5.8-1.08,5.8-5.14Z"
                    />
                    <rect class="cls-1" x="17.3" y="626.49" width="13.6" height="3.57" />
                    <rect class="cls-1" x="19.7" y="623.51" width="8.8" height="3.07" />
                    <text id="pressurizer_txt" x="25" y="650" writing-mode="tb">
                        Pressurizer
                    </text>
                </g>
            </g> 
            -->

        </g>
    </g>
</svg>