<svg xmlns="http://www.w3.org/2000/svg" viewBox="0 0 81.14 758.81">
    <defs>
        <style>
            .cls-1,.cls-7{fill:none;}
            .cls-1,.cls-2,.cls-3,.cls-4,.cls-5,.cls-6,.cls-7{stroke:#ccccdc;}
            .cls-2{fill:#1857b8;}
            .cls-3{fill:#fa6400;}
            .cls-4{fill:#5694f2;}
            .cls-5{fill:#e0b400;}
            .cls-6{fill:#77be69;}
            .cls-7{stroke-width:2px;}
            .cls-8{fill:#ccccdc;}
            .cls-9{fill:#1857b8;}
        </style>
    </defs>
    <g id="Layer_2" data-name="Layer 2">
        <g id="gs">
            <g id="rocket">
                <g id="rocket_group">
                    <polygon id="outline" class="cls-1"
                        points="40.75 0.63 42.28 2.39 43.63 7.3 47.09 22.68 51.89 49.51 55.48 78.74 58 100.3 59.08 118.82 59.38 721.04 80.64 735 80.64 750.03 59.44 752.95 59.32 758.31 21.7 758.31 21.7 752.95 0.5 749.78 0.5 735.13 22.24 720.55 21.97 117.91 22.78 103.35 24.58 84.83 26.73 66.56 29.43 46.95 31.59 33.3 34.46 17.65 36.8 7.6 38.95 1.57 40.75 0.63" />
                    <rect id="oxidizer_tank" class="cls-2" x="-30.74" y="448.19" width="142.89"
                        height="37.09" transform="matrix(0, 1, -1, 0, 507.45, 426.03)" />
                    <rect id="engine" class="cls-3" x="-52.45" y="641.2" width="185.9" height="37.6"
                        transform="matrix(0, 1, -1, 0, 700.51, 619.5)" />
                    <rect id="avionics" class="cls-4" x="10.46" y="314.3" width="60.42"
                        height="37.01" transform="matrix(0, 1, -1, 0, 373.47, 292.14)" />
                    <rect id="payload" class="cls-5" x="15.6" y="259.05" width="50.11"
                        height="36.98" transform="matrix(0, 1, -1, 0, 318.19, 236.89)" />
                    <rect id="recovery" class="cls-6" x="-12.93" y="156.77" width="106.95"
                        height="37.06" transform="matrix(0, 1, -1, 0, 215.85, 134.74)" />
                </g>
            </g>
        </g>
    </g>
</svg>