<svg xmlns="http://www.w3.org/2000/svg" xmlns:xlink="http://www.w3.org/1999/xlink" viewBox="0 0 1364.64 763.83"><defs><style>.cls-1,.cls-7,.cls-8{fill:none;}.cls-1,.cls-2,.cls-3,.cls-4,.cls-5,.cls-6,.cls-7,.cls-8{stroke:#fff;}.cls-2{fill:blue;}.cls-3{fill:#f15a24;}.cls-4{fill:aqua;}.cls-5{fill:#f0f;}.cls-6{fill:lime;}.cls-7{stroke-width:2px;}.cls-8{stroke-width:3px;}.cls-9{fill:#fff;}</style></defs><g id="Layer_2" data-name="Layer 2"><g id="gs"><g id="rocket"><g id="rocket_group"><polygon id="outline" class="cls-1" points="40.75 0.63 42.28 2.39 43.63 7.3 47.09 22.68 51.89 49.51 55.48 78.74 58 100.3 59.08 118.82 59.38 721.04 80.64 735 80.64 750.03 59.44 752.95 59.32 758.31 21.7 758.31 21.7 752.95 0.5 749.78 0.5 735.13 22.24 720.55 21.97 117.91 22.78 103.35 24.58 84.83 26.73 66.56 29.43 46.95 31.59 33.3 34.46 17.65 36.8 7.6 38.95 1.57 40.75 0.63"/><rect id="oxidizer" class="cls-2" x="-30.74" y="448.19" width="142.89" height="37.09" transform="matrix(0, 1, -1, 0, 507.45, 426.03)"/><rect id="fuel" class="cls-3" x="-52.45" y="641.2" width="185.9" height="37.6" transform="matrix(0, 1, -1, 0, 700.51, 619.5)"/><rect id="computer" class="cls-4" x="10.46" y="314.3" width="60.42" height="37.01" transform="matrix(0, 1, -1, 0, 373.47, 292.14)"/><rect id="payload" class="cls-5" x="15.6" y="259.05" width="50.11" height="36.98" transform="matrix(0, 1, -1, 0, 318.19, 236.89)"/><rect id="parachute" class="cls-6" x="-12.93" y="156.77" width="106.95" height="37.06" transform="matrix(0, 1, -1, 0, 215.85, 134.74)"/></g></g><g id="system"><path id="valve1" class="cls-7" d="M249.51,524v28.46L306.42,524v28.46Z"/><path id="valve2" class="cls-7" d="M249.51,571.43v28.46l56.91-28.46v28.46Z"/><g id="skrzynka1"></g><g id="radiolinia"><line class="cls-8" x1="1195.97" y1="733.29" x2="713.97" y2="733.29"/><circle class="cls-9" cx="716.97" cy="733.29" r="4"/><circle class="cls-9" cx="1197.09" cy="733.29" r="4"/></g><g id="oxidizer_tank"><path class="cls-9" d="M435.81,627.19c0-9.37-7-17.33-15.73-17.62-5.26-.18-10.54-.18-15.8,0-8.76.29-15.89,8.2-15.9,17.47V751.9c0,5.08,1.05,6.34,5.68,6.36q18,.11,35.94,0c4.73,0,5.81-1.26,5.81-6.21q0-31.44,0-62.86Q435.81,658.2,435.81,627.19Z"/><rect class="cls-9" x="405.76" y="606.35" width="13.61" height="4.31"/><rect class="cls-9" x="408.13" y="602.7" width="8.78" height="3.66"/></g><g id="hatch"><line class="cls-7" x1="74.14" y1="539.11" x2="61.05" y2="539.11"/><line class="cls-7" x1="61.27" y1="527.03" x2="61.27" y2="551.2"/><line class="cls-7" x1="61.05" y1="539.57" x2="87.05" y2="513.57"/><line class="cls-7" x1="61.05" y1="538.66" x2="87.05" y2="564.66"/><circle class="cls-7" cx="81.93" cy="539.11" r="7.89"/></g><line class="cls-7" x1="412.54" y1="604.67" x2="412.54" y2="538.19"/><line class="cls-7" x1="413.19" y1="539.14" x2="306.42" y2="539.14"/><line class="cls-7" x1="413.19" y1="585.66" x2="306.42" y2="585.66"/><line class="cls-7" x1="609.49" y1="706.12" x2="609.49" y2="538.19"/><line class="cls-7" x1="610.14" y1="539.14" x2="413.19" y2="539.14"/><line class="cls-7" x1="610.14" y1="585.66" x2="413.19" y2="585.66"/><line class="cls-7" x1="249.51" y1="539.14" x2="89.82" y2="539.14"/><circle class="cls-9" cx="412.56" cy="539.14" r="4"/><circle class="cls-9" cx="412.56" cy="585.66" r="4"/><circle class="cls-9" cx="609.52" cy="585.66" r="4"/><circle class="cls-9" cx="609.49" cy="539.14" r="4"/></g></g></g></svg>