<svg xmlns="http://www.w3.org/2000/svg" viewBox="0 0 1134.44 823.22">
    <defs>
        <style>
            .cls-1,.cls-7{fill:none;}.cls-1,.cls-2,.cls-3,.cls-4,.cls-5,.cls-6,.cls-7{stroke:#fff;}.cls-2{fill:blue;}.cls-3{fill:#f15a24;}.cls-4{fill:aqua;}.cls-5{fill:#f0f;}.cls-6{fill:lime;}.cls-7{stroke-width:2px;}.cls-8{fill:#fff;}</style>
    </defs>
    <g id="Layer_2" data-name="Layer 2">
        <g id="gs">
            <g id="rocket">
                <g id="rocket_group">
                    <polygon id="outline" class="cls-1"
                        points="48.17 0.63 49.7 2.39 51.05 7.3 54.5 22.68 59.31 49.51 62.91 78.74 65.42 100.3 66.5 118.82 66.8 721.04 88.06 735 88.06 750.03 66.86 752.95 66.74 758.31 29.12 758.31 29.12 752.95 7.92 749.78 7.92 735.13 29.66 720.55 29.39 117.91 30.2 103.35 32 84.83 34.15 66.56 36.85 46.95 39.01 33.3 41.88 17.65 44.22 7.6 46.37 1.57 48.17 0.63" />
                    <rect id="oxidizer" class="cls-2" x="-23.32" y="448.19" width="142.89"
                        height="37.09" transform="matrix(0, 1, -1, 0, 514.86, 418.61)" />
                    <rect id="fuel" class="cls-3" x="-45.03" y="641.2" width="185.9" height="37.6"
                        transform="matrix(0, 1, -1, 0, 707.93, 612.08)" />
                    <rect id="computer" class="cls-4" x="17.87" y="314.3" width="60.42"
                        height="37.01" transform="matrix(0, 1, -1, 0, 380.89, 284.72)" />
                    <rect id="payload" class="cls-5" x="23.02" y="259.05" width="50.11"
                        height="36.98" transform="matrix(0, 1, -1, 0, 325.61, 229.47)" />
                    <rect id="parachute" class="cls-6" x="-5.51" y="156.77" width="106.95"
                        height="37.06" transform="matrix(0, 1, -1, 0, 223.27, 127.32)" />
                </g>
                <g id="_433_signal" data-name="433_signal">
                    <path id="_1" data-name="1" class="cls-7" d="M81.47,235.84a10,10,0,0,1,0,14.14" />
                    <path id="_2" data-name="2" class="cls-7" d="M88.27,229a20,20,0,0,1,0,28.28" />
                    <path id="_3" data-name="3" class="cls-7" d="M95.34,222a30,30,0,0,1,0,42.42" />
                    <path id="_4" data-name="4" class="cls-7" d="M102.41,214.9a40,40,0,0,1,0,56.57" />
                    <path id="_5" data-name="5" class="cls-7" d="M109.57,207.74a50,50,0,0,1,0,70.71" />
                </g>
            </g>
            <g id="stage_zero">
                <path id="valve1" class="cls-7" d="M256.93,524v28.46L313.84,524v28.46Z" />
                <path id="valve2" class="cls-7" d="M256.93,571.43v28.46l56.91-28.46v28.46Z" />
                <g id="oxidizer_tank">
                    <path class="cls-8"
                        d="M443.23,627.19c0-9.37-7-17.33-15.73-17.62-5.26-.18-10.54-.18-15.8,0-8.76.29-15.89,8.2-15.9,17.47q0,62.43,0,124.87c0,5.08,1.05,6.34,5.68,6.36q18,.11,35.94,0c4.73,0,5.81-1.26,5.81-6.21q0-31.44,0-62.86Q443.23,658.2,443.23,627.19Z" />
                    <rect class="cls-8" x="413.18" y="606.35" width="13.61" height="4.31" />
                    <rect class="cls-8" x="415.55" y="602.7" width="8.78" height="3.66" />
                </g>
                <g id="hatch">
                    <rect class="cls-8" x="68.47" y="538.11" width="13.09" height="2" />
                    <rect class="cls-8" x="67.69" y="527.03" width="2" height="24.17" />
                    <rect class="cls-8" x="63.08" y="525.57" width="36.77" height="2"
                        transform="translate(-348.48 211.83) rotate(-45)" />
                    <rect class="cls-8" x="80.47" y="533.27" width="2" height="36.77"
                        transform="translate(-366.22 219.18) rotate(-45)" />
                    <path class="cls-8"
                        d="M89.35,548a8.89,8.89,0,1,1,8.89-8.89A8.89,8.89,0,0,1,89.35,548Zm0-15.77a6.89,6.89,0,1,0,6.89,6.88A6.89,6.89,0,0,0,89.35,532.23Z" />
                </g>
                <g id="linie2">
                    <line class="cls-7" x1="419.96" y1="604.67" x2="419.96" y2="538.19" />
                    <line class="cls-7" x1="420.61" y1="539.14" x2="313.84" y2="539.14" />
                    <line class="cls-7" x1="420.61" y1="585.66" x2="313.84" y2="585.66" />
                    <line class="cls-7" x1="616.91" y1="706.12" x2="616.91" y2="538.19" />
                    <line class="cls-7" x1="617.56" y1="539.14" x2="420.61" y2="539.14" />
                    <line class="cls-7" x1="617.56" y1="585.66" x2="420.61" y2="585.66" />
                    <line class="cls-7" x1="256.93" y1="539.14" x2="97.24" y2="539.14" />
                    <circle class="cls-8" cx="419.98" cy="539.14" r="4" />
                    <circle class="cls-8" cx="419.98" cy="585.66" r="4" />
                    <circle class="cls-8" cx="616.94" cy="585.66" r="4" />
                    <circle class="cls-8" cx="616.91" cy="539.14" r="4" />
                </g>
                <g id="linie1">
                    <line class="cls-7" x1="612.15" y1="819.22" y2="819.22" />
                    <line class="cls-7" x1="612.94" y1="820.95" x2="612.94" y2="755.98" />
                    <line class="cls-7" x1="21.99" y1="818.5" x2="21.99" y2="798.64" />
                    <line class="cls-7" x1="73.99" y1="820.33" x2="73.99" y2="800.47" />
                    <circle class="cls-8" cx="612.94" cy="819.22" r="4" />
                    <circle class="cls-8" cx="73.99" cy="819.22" r="4" />
                    <circle class="cls-8" cx="21.99" cy="819.22" r="4" />
                </g>
                <rect id="skrzynka_tankowanie" class="cls-8" x="553.54" y="701.45" width="126.75"
                    height="55.67" rx="7.07" />
                <rect id="tenso2" class="cls-8" y="786.33" width="43.98" height="14.14" rx="7.07" />
                <rect id="tenso1" class="cls-8" x="52" y="786.33" width="43.98" height="14.14"
                    rx="7.07" />
                <rect id="skrzynka_mc" class="cls-8" x="1007.69" y="701.45" width="126.75"
                    height="55.67" rx="7.07" />
                <g id="radiolinia_signal_tx">
                    <path id="_1-2" data-name="1" class="cls-7" d="M699,722a10,10,0,0,1,0,14.14" />
                    <path id="_2-2" data-name="2" class="cls-7"
                        d="M705.81,715.23a20,20,0,0,1,0,28.29" />
                    <path id="_3-2" data-name="3" class="cls-7"
                        d="M712.89,708.16a30,30,0,0,1,0,42.43" />
                    <path id="_4-2" data-name="4" class="cls-7" d="M720,701.09a40,40,0,0,1,0,56.57" />
                    <path id="_5-2" data-name="5" class="cls-7"
                        d="M727.12,693.93a50,50,0,0,1,0,70.71" />
                </g>
                <g id="radiolinia_signal_rx">
                    <path id="_1-3" data-name="1" class="cls-7"
                        d="M989.57,736.36a10,10,0,0,1,0-14.15" />
                    <path id="_2-3" data-name="2" class="cls-7"
                        d="M982.77,743.16a20,20,0,0,1,0-28.29" />
                    <path id="_3-3" data-name="3" class="cls-7"
                        d="M975.7,750.23a30,30,0,0,1,0-42.43" />
                    <path id="_4-3" data-name="4" class="cls-7"
                        d="M968.63,757.3a40,40,0,0,1,0-56.57" />
                    <path id="_5-3" data-name="5" class="cls-7"
                        d="M961.47,764.46a50,50,0,0,1,0-70.71" />
                </g>
            </g>
        </g>
    </g>
</svg>